<mxfile host="app.diagrams.net" modified="2023-12-07T00:47:36.776Z" agent="Mozilla/5.0 (Macintosh; Intel Mac OS X 10_15_7) AppleWebKit/537.36 (KHTML, like Gecko) Chrome/119.0.0.0 Safari/537.36" etag="SWwrO9J3B8uVjw89l7Dd" version="21.8.0" type="github">
  <diagram name="Page-1" id="Ss_0sNrhaSlP3RTeClDd">
    <mxGraphModel dx="954" dy="539" grid="1" gridSize="10" guides="1" tooltips="1" connect="1" arrows="1" fold="1" page="1" pageScale="1" pageWidth="850" pageHeight="1100" math="0" shadow="0">
      <root>
        <mxCell id="0" />
        <mxCell id="1" parent="0" />
        <mxCell id="kQBXzWqDM6zVJS3i9vgP-4" value="" style="edgeStyle=orthogonalEdgeStyle;rounded=0;orthogonalLoop=1;jettySize=auto;html=1;" edge="1" parent="1" source="kQBXzWqDM6zVJS3i9vgP-5" target="kQBXzWqDM6zVJS3i9vgP-25">
          <mxGeometry relative="1" as="geometry">
            <mxPoint x="380" y="512" as="targetPoint" />
          </mxGeometry>
        </mxCell>
        <mxCell id="kQBXzWqDM6zVJS3i9vgP-5" value="[GET] /turismo&lt;br&gt;[POST] /turismo" style="outlineConnect=0;dashed=0;verticalLabelPosition=bottom;verticalAlign=top;align=center;html=1;shape=mxgraph.aws3.http_protocol;fillColor=#5294CF;gradientColor=none;" vertex="1" parent="1">
          <mxGeometry x="230" y="479" width="63" height="66" as="geometry" />
        </mxCell>
        <mxCell id="kQBXzWqDM6zVJS3i9vgP-6" value="UsuÃ¡rio" style="shape=umlActor;verticalLabelPosition=bottom;verticalAlign=top;html=1;outlineConnect=0;" vertex="1" parent="1">
          <mxGeometry x="30" y="479" width="30" height="60" as="geometry" />
        </mxCell>
        <mxCell id="kQBXzWqDM6zVJS3i9vgP-7" value="" style="edgeStyle=orthogonalEdgeStyle;rounded=0;orthogonalLoop=1;jettySize=auto;html=1;" edge="1" parent="1" source="kQBXzWqDM6zVJS3i9vgP-8" target="kQBXzWqDM6zVJS3i9vgP-5">
          <mxGeometry relative="1" as="geometry" />
        </mxCell>
        <mxCell id="kQBXzWqDM6zVJS3i9vgP-8" value="" style="image;aspect=fixed;html=1;points=[];align=center;fontSize=12;image=img/lib/azure2/management_governance/Managed_Desktop.svg;" vertex="1" parent="1">
          <mxGeometry x="80" y="480.4" width="68" height="63.2" as="geometry" />
        </mxCell>
        <mxCell id="kQBXzWqDM6zVJS3i9vgP-22" value="" style="edgeStyle=orthogonalEdgeStyle;rounded=0;orthogonalLoop=1;jettySize=auto;html=1;" edge="1" parent="1" source="kQBXzWqDM6zVJS3i9vgP-16" target="kQBXzWqDM6zVJS3i9vgP-21">
          <mxGeometry relative="1" as="geometry" />
        </mxCell>
        <mxCell id="kQBXzWqDM6zVJS3i9vgP-16" value="Engenheiro/Cientista&lt;br&gt;de dados" style="shape=umlActor;verticalLabelPosition=bottom;verticalAlign=top;html=1;outlineConnect=0;" vertex="1" parent="1">
          <mxGeometry x="341" y="285" width="30" height="60" as="geometry" />
        </mxCell>
        <mxCell id="kQBXzWqDM6zVJS3i9vgP-20" value="Feature Store" style="sketch=0;points=[[0,0,0],[0.25,0,0],[0.5,0,0],[0.75,0,0],[1,0,0],[0,1,0],[0.25,1,0],[0.5,1,0],[0.75,1,0],[1,1,0],[0,0.25,0],[0,0.5,0],[0,0.75,0],[1,0.25,0],[1,0.5,0],[1,0.75,0]];outlineConnect=0;fontColor=#232F3E;fillColor=#01A88D;strokeColor=#ffffff;dashed=0;verticalLabelPosition=bottom;verticalAlign=top;align=center;html=1;fontSize=12;fontStyle=0;aspect=fixed;shape=mxgraph.aws4.resourceIcon;resIcon=mxgraph.aws4.sagemaker;" vertex="1" parent="1">
          <mxGeometry x="660" y="473" width="78" height="78" as="geometry" />
        </mxCell>
        <mxCell id="kQBXzWqDM6zVJS3i9vgP-24" value="" style="edgeStyle=orthogonalEdgeStyle;rounded=0;orthogonalLoop=1;jettySize=auto;html=1;" edge="1" parent="1" source="kQBXzWqDM6zVJS3i9vgP-21" target="kQBXzWqDM6zVJS3i9vgP-20">
          <mxGeometry relative="1" as="geometry" />
        </mxCell>
        <mxCell id="kQBXzWqDM6zVJS3i9vgP-21" value="Amazon SageMaker" style="sketch=0;outlineConnect=0;fontColor=#232F3E;gradientColor=none;strokeColor=#ffffff;fillColor=#232F3E;dashed=0;verticalLabelPosition=middle;verticalAlign=bottom;align=center;html=1;whiteSpace=wrap;fontSize=10;fontStyle=1;spacing=3;shape=mxgraph.aws4.productIcon;prIcon=mxgraph.aws4.sagemaker;" vertex="1" parent="1">
          <mxGeometry x="430" y="260" width="80" height="110" as="geometry" />
        </mxCell>
        <mxCell id="kQBXzWqDM6zVJS3i9vgP-29" value="" style="edgeStyle=orthogonalEdgeStyle;rounded=0;orthogonalLoop=1;jettySize=auto;html=1;" edge="1" parent="1" source="kQBXzWqDM6zVJS3i9vgP-25" target="kQBXzWqDM6zVJS3i9vgP-28">
          <mxGeometry relative="1" as="geometry" />
        </mxCell>
        <mxCell id="kQBXzWqDM6zVJS3i9vgP-25" value="API Gateway" style="outlineConnect=0;dashed=0;verticalLabelPosition=bottom;verticalAlign=top;align=center;html=1;shape=mxgraph.aws3.api_gateway;fillColor=#D9A741;gradientColor=none;" vertex="1" parent="1">
          <mxGeometry x="387" y="465.5" width="76.5" height="93" as="geometry" />
        </mxCell>
        <mxCell id="kQBXzWqDM6zVJS3i9vgP-30" value="" style="edgeStyle=orthogonalEdgeStyle;rounded=0;orthogonalLoop=1;jettySize=auto;html=1;" edge="1" parent="1" source="kQBXzWqDM6zVJS3i9vgP-28" target="kQBXzWqDM6zVJS3i9vgP-20">
          <mxGeometry relative="1" as="geometry" />
        </mxCell>
        <mxCell id="kQBXzWqDM6zVJS3i9vgP-28" value="Lambda" style="outlineConnect=0;dashed=0;verticalLabelPosition=bottom;verticalAlign=top;align=center;html=1;shape=mxgraph.aws3.lambda;fillColor=#F58534;gradientColor=none;" vertex="1" parent="1">
          <mxGeometry x="523.5" y="465.5" width="76.5" height="93" as="geometry" />
        </mxCell>
        <mxCell id="kQBXzWqDM6zVJS3i9vgP-32" value="" style="edgeStyle=orthogonalEdgeStyle;rounded=0;orthogonalLoop=1;jettySize=auto;html=1;" edge="1" parent="1" source="kQBXzWqDM6zVJS3i9vgP-31" target="kQBXzWqDM6zVJS3i9vgP-21">
          <mxGeometry relative="1" as="geometry" />
        </mxCell>
        <mxCell id="kQBXzWqDM6zVJS3i9vgP-31" value="" style="shape=image;verticalLabelPosition=bottom;labelBackgroundColor=default;verticalAlign=top;aspect=fixed;imageAspect=0;image=https://dados.turismo.gov.br/uploads/admin/2021-10-19-130513.513282BannerDadosAbertosCkanv2.jpg;" vertex="1" parent="1">
          <mxGeometry x="334.13" y="140" width="271.75" height="67.94" as="geometry" />
        </mxCell>
      </root>
    </mxGraphModel>
  </diagram>
</mxfile>
